<svg width="120" height="25" viewBox="0 0 95 17" fill="none" xmlns="http://www.w3.org/2000/svg">
<path d="M1.76367 9.0542C1.76367 6.98291 1.79443 5.39355 1.85596 4.28613H1.8457L0.276855 4.0708C0.187988 3.81787 0.119629 3.54102 0.0717773 3.24023C0.0239258 2.93262 0 2.63525 0 2.34814C0 2.12939 0.0170898 1.89014 0.0512695 1.63037C0.885254 1.3501 1.97559 1.13477 3.32227 0.984375C4.66895 0.827148 5.9541 0.748535 7.17773 0.748535C8.22363 0.748535 9.12256 0.830566 9.87451 0.994629C10.6265 1.15186 11.2554 1.51416 11.7612 2.08154C12.2739 2.64209 12.5303 3.47949 12.5303 4.59375C12.5303 5.03125 12.4106 5.52686 12.1714 6.08057C11.9321 6.62744 11.6177 7.14355 11.228 7.62891C10.8452 8.10742 10.4453 8.47656 10.0283 8.73633C10.5479 8.8252 11.0298 9.00635 11.4741 9.27979C11.9253 9.54639 12.291 9.91211 12.5713 10.377C12.8516 10.835 12.9917 11.3784 12.9917 12.0073C12.9917 12.8481 12.8311 13.5728 12.5098 14.1812C12.1885 14.7896 11.7305 15.292 11.1357 15.6885C9.97363 16.4609 8.33301 16.8472 6.21387 16.8472C5.37988 16.8472 4.63818 16.8301 3.98877 16.7959C3.34619 16.7686 2.75146 16.7139 2.20459 16.6318C1.91064 15.0459 1.76367 12.52 1.76367 9.0542ZM7.59814 8.4082C7.77588 7.90918 7.92627 7.27686 8.04932 6.51123C8.1792 5.73877 8.25781 5.10986 8.28516 4.62451C8.25098 4.56299 8.07666 4.51172 7.76221 4.4707C7.44775 4.42285 7.04102 4.39893 6.54199 4.39893C6.38477 4.39893 6.12158 4.40918 5.75244 4.42969C5.69775 5.96777 5.61572 7.34863 5.50635 8.57227L6.54199 8.49023L7.59814 8.4082ZM7.08545 14.1606C7.65967 14.1606 8.06982 14.1367 8.31592 14.0889C8.48682 13.9863 8.63721 13.8018 8.76709 13.5352C8.90381 13.2686 9.00635 12.978 9.07471 12.6636C9.14307 12.3423 9.17725 12.0552 9.17725 11.8022C9.0542 11.4468 8.44238 11.269 7.3418 11.269C6.87695 11.269 6.34375 11.2998 5.74219 11.3613C5.57812 11.3818 5.45508 11.3921 5.37305 11.3921L5.34229 12.8892C5.33545 13.0396 5.32861 13.2139 5.32178 13.4121C5.31494 13.6104 5.31152 13.8325 5.31152 14.0786C5.7627 14.1333 6.25488 14.1606 6.78809 14.1606H7.08545ZM14.2529 10.582C14.2529 9.34473 14.4512 8.27148 14.8477 7.3623C15.2441 6.45312 15.8525 5.74902 16.6729 5.25C17.4932 4.74414 18.522 4.49121 19.7593 4.49121C21.1265 4.49121 22.1997 4.74756 22.979 5.26025C23.7583 5.76611 24.3018 6.47021 24.6094 7.37256C24.9238 8.2749 25.0811 9.37891 25.0811 10.6846C25.0811 11.8672 24.8726 12.9233 24.4556 13.853C24.0454 14.7759 23.4233 15.5073 22.5894 16.0474C21.7622 16.5806 20.7471 16.8472 19.5439 16.8472C17.6846 16.8472 16.3379 16.2764 15.5039 15.1348C14.6699 13.9863 14.2529 12.4688 14.2529 10.582ZM19.9644 13.8428C20.313 13.8428 20.5249 13.8154 20.6001 13.7607C20.7573 13.4873 20.877 13.1011 20.959 12.6021C21.041 12.103 21.082 11.563 21.082 10.9819C21.082 10.4487 21.0479 9.94971 20.9795 9.48486C20.9111 9.01318 20.8154 8.64404 20.6924 8.37744C20.6172 8.28857 20.4668 8.22363 20.2412 8.18262C20.0156 8.13477 19.7695 8.11084 19.5029 8.11084C19.1543 8.11084 18.915 8.14844 18.7852 8.22363C18.4434 8.81152 18.2725 9.62842 18.2725 10.6743C18.2725 11.1665 18.3101 11.6689 18.3853 12.1816C18.4604 12.6943 18.5562 13.1592 18.6724 13.5762C18.7544 13.665 18.9219 13.7334 19.1748 13.7812C19.4277 13.8223 19.6909 13.8428 19.9644 13.8428ZM26.4551 10.582C26.4551 9.34473 26.6533 8.27148 27.0498 7.3623C27.4463 6.45312 28.0547 5.74902 28.875 5.25C29.6953 4.74414 30.7241 4.49121 31.9614 4.49121C33.3286 4.49121 34.4019 4.74756 35.1812 5.26025C35.9604 5.76611 36.5039 6.47021 36.8115 7.37256C37.126 8.2749 37.2832 9.37891 37.2832 10.6846C37.2832 11.8672 37.0747 12.9233 36.6577 13.853C36.2476 14.7759 35.6255 15.5073 34.7915 16.0474C33.9644 16.5806 32.9492 16.8472 31.7461 16.8472C29.8867 16.8472 28.54 16.2764 27.7061 15.1348C26.8721 13.9863 26.4551 12.4688 26.4551 10.582ZM32.1665 13.8428C32.5151 13.8428 32.7271 13.8154 32.8022 13.7607C32.9595 13.4873 33.0791 13.1011 33.1611 12.6021C33.2432 12.103 33.2842 11.563 33.2842 10.9819C33.2842 10.4487 33.25 9.94971 33.1816 9.48486C33.1133 9.01318 33.0176 8.64404 32.8945 8.37744C32.8193 8.28857 32.6689 8.22363 32.4434 8.18262C32.2178 8.13477 31.9717 8.11084 31.7051 8.11084C31.3564 8.11084 31.1172 8.14844 30.9873 8.22363C30.6455 8.81152 30.4746 9.62842 30.4746 10.6743C30.4746 11.1665 30.5122 11.6689 30.5874 12.1816C30.6626 12.6943 30.7583 13.1592 30.8745 13.5762C30.9565 13.665 31.124 13.7334 31.377 13.7812C31.6299 13.8223 31.8931 13.8428 32.1665 13.8428ZM39.252 10.0181C39.252 6.81885 39.3135 4.62451 39.4365 3.43506L38.2778 3.22998C38.1138 2.60107 38.0317 1.92432 38.0317 1.19971C38.1343 1.06982 38.3257 0.90918 38.606 0.717773C38.8862 0.526367 39.2109 0.358887 39.5801 0.215332C39.9561 0.0717773 40.3286 0 40.6978 0C41.6138 0 42.3247 0.198242 42.8306 0.594727C43.3433 0.991211 43.5996 1.66797 43.5996 2.625C43.5996 3.10352 43.5654 3.83838 43.4971 4.82959C43.4287 5.81396 43.3022 7.01025 43.1177 8.41846C42.9331 9.82666 42.687 11.2964 42.3794 12.8276L42.5537 12.9302C43.0938 12.1851 43.6133 11.3647 44.1123 10.4692C44.6113 9.56689 45.0078 8.72949 45.3018 7.95703L44.4199 7.7417C44.3379 7.27686 44.2969 6.72656 44.2969 6.09082V5.72168C44.5566 5.39355 44.9121 5.10645 45.3633 4.86035C45.8213 4.61426 46.3887 4.49121 47.0654 4.49121C47.5508 4.49121 47.9712 4.5835 48.3267 4.76807C48.6821 4.9458 48.9556 5.19531 49.147 5.5166C49.3384 5.83789 49.4341 6.20703 49.4341 6.62402C49.4341 6.93848 49.3862 7.23584 49.2905 7.51611C49.1948 7.78955 49.0513 8.08008 48.8599 8.3877C48.3677 9.16699 47.5098 10.2744 46.2861 11.71C46.6963 12.2842 47.0962 12.7832 47.4858 13.207C47.6362 13.1318 47.7764 13.0327 47.9062 12.9097C48.043 12.7866 48.2173 12.6089 48.4292 12.3765L48.6548 12.1406L49.916 13.0942C49.8682 14.311 49.605 15.2407 49.1265 15.8833C48.6548 16.519 48.0293 16.8369 47.25 16.8369C46.3955 16.8369 45.7529 16.5771 45.3223 16.0576C44.8916 15.5381 44.5771 14.8032 44.3789 13.853C43.627 14.6665 42.9639 15.3501 42.3896 15.9038C41.8223 16.4507 41.4497 16.7651 41.272 16.8472C40.896 16.8472 40.5371 16.8027 40.1953 16.7139C39.8535 16.625 39.6006 16.4849 39.4365 16.2935C39.3613 15.3228 39.3101 14.3623 39.2827 13.4121C39.2622 12.4551 39.252 11.3237 39.252 10.0181ZM51.1055 13.3506C51.167 13.3711 51.2969 13.4189 51.4951 13.4941C51.7002 13.5625 51.9258 13.6206 52.1719 13.6685V4.00928L50.562 3.46582C50.4048 3.09668 50.3262 2.67285 50.3262 2.19434C50.3262 1.80469 50.3877 1.45605 50.5107 1.14844C51.0029 1.01855 51.5942 0.919434 52.2847 0.851074C52.9819 0.775879 53.6553 0.738281 54.3047 0.738281C55.2686 0.738281 56.1196 0.810059 56.8579 0.953613C57.1997 1.6167 57.7056 2.86426 58.3755 4.69629C59.0522 6.52832 59.8657 8.93115 60.8159 11.9048L60.9902 11.8843C60.792 10.1958 60.5938 8.2168 60.3955 5.94727C60.2041 3.6709 60.1084 2.1123 60.1084 1.27148C60.4639 1.10742 60.8604 0.980957 61.2979 0.89209C61.7354 0.796387 62.1387 0.748535 62.5078 0.748535C63.1094 0.748535 63.687 0.871582 64.2407 1.11768L63.2461 14.0786C63.6016 14.5913 63.8237 15.1929 63.9126 15.8833C63.6323 16.1909 63.2051 16.4302 62.6309 16.6011C62.0635 16.7651 61.4585 16.8472 60.8159 16.8472C60.3169 16.8472 59.8623 16.7959 59.4521 16.6934C59.0488 16.5908 58.7344 16.4336 58.5088 16.2217C58.5156 15.709 58.5601 15.2407 58.6421 14.8169C58.1294 13.7915 57.6338 12.6636 57.1553 11.4331C56.6836 10.1958 56.082 8.55518 55.3506 6.51123L54.8994 5.26025L54.8379 5.27051C54.9814 6.33691 55.1353 7.90918 55.2993 9.9873C55.4634 12.0586 55.5454 13.5728 55.5454 14.5298C55.5454 15.2954 55.3164 15.873 54.8584 16.2627C54.4072 16.6523 53.6997 16.8472 52.7358 16.8472C52.4351 16.8472 52.1138 16.7891 51.772 16.6729C51.4302 16.5566 51.1191 16.4097 50.8389 16.2319C50.5654 16.0474 50.374 15.8696 50.2646 15.6987C50.2646 15.2065 50.3398 14.7383 50.4902 14.2939C50.6406 13.8496 50.8457 13.5352 51.1055 13.3506ZM65.6455 10.6846C65.6455 9.50195 65.8438 8.4458 66.2402 7.51611C66.6367 6.58643 67.2485 5.85156 68.0757 5.31152C68.9097 4.76465 69.9487 4.49121 71.1929 4.49121C71.8423 4.49121 72.4917 4.56982 73.1411 4.72705C73.7905 4.87744 74.3408 5.13037 74.792 5.48584C75.209 5.8208 75.5098 6.26514 75.6943 6.81885C75.8857 7.36572 75.9814 7.97412 75.9814 8.64404C75.9814 9.08838 75.9438 9.54297 75.8687 10.0078C75.7866 10.1445 75.626 10.3257 75.3867 10.5513C75.1475 10.77 74.8672 10.9854 74.5459 11.1973C74.2246 11.4092 73.9136 11.5732 73.6128 11.6895C73.3257 11.71 73.0283 11.7202 72.7207 11.7202C72.1807 11.7202 71.6338 11.6963 71.0801 11.6484C70.5264 11.6006 70.041 11.5459 69.624 11.4844C69.6787 12.0654 69.8564 12.5713 70.1572 13.002C70.458 13.4326 70.9365 13.6479 71.5928 13.6479C71.6543 13.6479 71.7534 13.6411 71.8901 13.6274C72.3071 13.5864 72.7925 13.4771 73.3462 13.2993C73.9067 13.1147 74.4639 12.9028 75.0176 12.6636C75.2773 12.9233 75.4688 13.1831 75.5918 13.4429C75.7148 13.7026 75.8003 14.0752 75.8481 14.5605C75.6362 14.8066 75.291 15.1074 74.8125 15.4629C74.3408 15.8184 73.7632 16.1396 73.0796 16.4268C72.396 16.707 71.6816 16.8472 70.9365 16.8472C69.8154 16.8472 68.855 16.5771 68.0552 16.0371C67.2622 15.4902 66.6606 14.752 66.2505 13.8223C65.8472 12.8857 65.6455 11.8398 65.6455 10.6846ZM72.249 8.32617C72.1533 8.22363 71.9927 8.14502 71.7671 8.09033C71.5415 8.02881 71.3057 7.99805 71.0596 7.99805C70.8613 7.99805 70.6597 8.01514 70.4546 8.04932C70.2563 8.0835 70.1367 8.12109 70.0957 8.16211C69.8633 8.62012 69.7163 9.13965 69.6548 9.7207L72.3926 9.4541L72.249 8.32617ZM78.3193 13.0225C78.9209 13.2617 79.4028 13.4463 79.7651 13.5762C80.1274 13.7061 80.5239 13.8188 80.9546 13.9146C81.3921 14.0103 81.8262 14.0581 82.2568 14.0581C82.4482 14.0581 82.585 14.041 82.667 14.0068C82.6875 13.9795 82.7046 13.9385 82.7183 13.8838C82.7388 13.8223 82.749 13.7607 82.749 13.6992C82.749 13.5625 82.6704 13.4497 82.5132 13.3608C82.2671 13.2241 81.8296 13.0088 81.2007 12.7148C80.3394 12.3047 79.6558 11.939 79.1499 11.6177C78.6509 11.2964 78.2271 10.8691 77.8784 10.3359C77.5366 9.80273 77.3657 9.13281 77.3657 8.32617C77.3657 7.1709 77.7109 6.24463 78.4014 5.54736C79.0918 4.84326 80.1855 4.49121 81.6826 4.49121C83.4668 4.49121 84.8545 4.72363 85.8457 5.18848C85.8936 5.38672 85.9175 5.63623 85.9175 5.93701C85.9175 6.51123 85.8286 7.09912 85.6509 7.70068C85.4731 8.29541 85.2407 8.73633 84.9536 9.02344C84.564 8.89355 84.0137 8.68506 83.3027 8.39795C82.7832 8.19287 82.3696 8.03564 82.062 7.92627C81.7612 7.81006 81.4844 7.72803 81.2314 7.68018C81.0947 7.71436 80.9854 7.79639 80.9033 7.92627C80.8213 8.04932 80.7803 8.19629 80.7803 8.36719C80.7803 8.51758 80.8247 8.64404 80.9136 8.74658C81.0024 8.84912 81.1016 8.93115 81.2109 8.99268C81.3271 9.04736 81.4912 9.12256 81.7031 9.21826C81.8125 9.26611 81.915 9.31055 82.0107 9.35156C82.1064 9.38574 82.1953 9.41992 82.2773 9.4541C82.8105 9.67969 83.231 9.86426 83.5386 10.0078C83.8462 10.1514 84.1436 10.3223 84.4307 10.5205C84.957 10.8828 85.3706 11.2964 85.6714 11.7612C85.9722 12.2261 86.1226 12.7354 86.1226 13.2891C86.1226 14.0547 85.9038 14.7178 85.4663 15.2783C85.0356 15.832 84.4819 16.2354 83.8052 16.4883C83.4497 16.6182 83.0601 16.7104 82.6362 16.7651C82.2192 16.8267 81.7305 16.8574 81.1699 16.8574C80.5068 16.8574 79.8232 16.731 79.1191 16.478C78.4219 16.2183 77.8887 15.7876 77.5195 15.186C77.5264 14.769 77.5811 14.4067 77.6836 14.0991C77.793 13.7847 78.0049 13.4258 78.3193 13.0225ZM88.1016 10.9819C88.1016 9.86768 88.1187 8.85254 88.1528 7.93652L87.0352 7.7417C86.9463 7.3999 86.8848 7.09912 86.8506 6.83936C86.8164 6.57959 86.7993 6.30273 86.7993 6.00879L86.8198 5.80371C86.8403 5.70801 86.8506 5.62939 86.8506 5.56787L88.3374 5.23975C88.3716 4.81592 88.4502 4.3374 88.5732 3.8042C88.6963 3.271 88.8262 2.87793 88.9629 2.625C89.1816 2.46094 89.4448 2.33789 89.7524 2.25586C90.0601 2.17383 90.3916 2.13281 90.7471 2.13281C91.0479 2.13281 91.3384 2.16357 91.6187 2.2251C91.9058 2.27979 92.1553 2.35498 92.3672 2.45068C92.3877 2.68311 92.3979 2.94971 92.3979 3.25049C92.3979 3.74268 92.374 4.2998 92.3262 4.92188L94.1309 4.59375C94.3838 5.03125 94.5103 5.50635 94.5103 6.01904C94.5103 6.37451 94.4658 6.6958 94.377 6.98291C94.2949 7.27002 94.1787 7.59473 94.0283 7.95703C93.5771 8.03223 92.9585 8.08008 92.1724 8.10059C92.0767 9.21484 91.8647 10.8521 91.5366 13.0122L91.4854 13.3608L91.5059 13.3813L93.9155 12.6328C94.4146 13.0498 94.7188 13.6924 94.8281 14.5605C94.8281 14.6084 94.606 14.834 94.1616 15.2373C93.7241 15.6338 93.1738 16.0029 92.5107 16.3447C91.8477 16.6797 91.1265 16.8472 90.3472 16.8472C88.9868 16.8472 88.2622 16.0166 88.1733 14.3555C88.1255 13.5146 88.1016 12.3901 88.1016 10.9819Z" fill="white"/>
</svg>
