<svg xmlns="http://www.w3.org/2000/svg" width="800" height="800" viewBox="0 0 20 20">
  <path fill="#000" fill-rule="evenodd" d="M5 4a1 1 0 0 1 0 2H4v1a1 1 0 0 1-2 0V6H1a1 1 0 0 1 0-2h1V3a1 1 0 0 1 2 0v1h1Zm10 14c-.55 0-1-.449-1-1 0-.661.453-.855 1-1.049.547.194 1 .388 1 1.049 0 .551-.449 1-1 1ZM3 18c-.55 0-1-.449-1-1 0-.661.453-.855 1-1.049.547.194 1 .388 1 1.049 0 .551-.449 1-1 1ZM16 3a1 1 0 0 1 1-1h2a1 1 0 0 0 0-2h-3a2 2 0 0 0-2 2v10H4a2 2 0 0 0-2 2v.184a2.991 2.991 0 0 0 .436 5.764A3.002 3.002 0 0 0 6 17a2.99 2.99 0 0 0-2-2.816V14h10v.184a2.991 2.991 0 0 0 .436 5.764A3.002 3.002 0 0 0 18 17a2.99 2.99 0 0 0-2-2.816V3Z"/>
</svg>
